<mxfile host="app.diagrams.net" modified="2020-10-30T16:39:34.598Z" agent="5.0 (Windows NT 10.0; Win64; x64) AppleWebKit/537.36 (KHTML, like Gecko) Chrome/86.0.4240.111 Safari/537.36" etag="gJ_KjGSejB7Uk5yVbtR1" version="13.8.5" type="github">
  <diagram id="R2lEEEUBdFMjLlhIrx00" name="Page-1">
    <mxGraphModel dx="1303" dy="728" grid="1" gridSize="10" guides="1" tooltips="1" connect="1" arrows="1" fold="1" page="1" pageScale="1" pageWidth="850" pageHeight="1100" math="0" shadow="0" extFonts="Permanent Marker^https://fonts.googleapis.com/css?family=Permanent+Marker">
      <root>
        <mxCell id="0" />
        <mxCell id="1" parent="0" />
        <mxCell id="QHZI53PdkNsuVGNOwL8E-12" value="Song&lt;br&gt;" style="whiteSpace=wrap;html=1;align=center;" parent="1" vertex="1">
          <mxGeometry x="345" y="195" width="100" height="40" as="geometry" />
        </mxCell>
        <mxCell id="QHZI53PdkNsuVGNOwL8E-13" value="Song_ID&lt;br&gt;" style="ellipse;whiteSpace=wrap;html=1;align=center;fontStyle=4;" parent="1" vertex="1">
          <mxGeometry x="245" y="100" width="100" height="40" as="geometry" />
        </mxCell>
        <mxCell id="La-xiMT2_Z9meSWqXWf7-1" value="Title" style="ellipse;whiteSpace=wrap;html=1;" vertex="1" parent="1">
          <mxGeometry x="445" y="100" width="90" height="40" as="geometry" />
        </mxCell>
        <mxCell id="La-xiMT2_Z9meSWqXWf7-2" value="Duration" style="ellipse;whiteSpace=wrap;html=1;" vertex="1" parent="1">
          <mxGeometry x="140" y="195" width="100" height="40" as="geometry" />
        </mxCell>
        <mxCell id="La-xiMT2_Z9meSWqXWf7-3" value="Artist&amp;nbsp;" style="ellipse;whiteSpace=wrap;html=1;" vertex="1" parent="1">
          <mxGeometry x="340" y="280" width="110" height="40" as="geometry" />
        </mxCell>
        <mxCell id="La-xiMT2_Z9meSWqXWf7-5" value="Genre" style="ellipse;whiteSpace=wrap;html=1;" vertex="1" parent="1">
          <mxGeometry x="570" y="190" width="115" height="50" as="geometry" />
        </mxCell>
        <mxCell id="La-xiMT2_Z9meSWqXWf7-6" value="" style="endArrow=none;html=1;exitX=1;exitY=0.5;exitDx=0;exitDy=0;entryX=0;entryY=0.5;entryDx=0;entryDy=0;" edge="1" parent="1" source="QHZI53PdkNsuVGNOwL8E-12" target="La-xiMT2_Z9meSWqXWf7-5">
          <mxGeometry width="50" height="50" relative="1" as="geometry">
            <mxPoint x="380" y="250" as="sourcePoint" />
            <mxPoint x="430" y="200" as="targetPoint" />
          </mxGeometry>
        </mxCell>
        <mxCell id="La-xiMT2_Z9meSWqXWf7-8" value="" style="endArrow=none;html=1;exitX=0.5;exitY=0;exitDx=0;exitDy=0;entryX=0.5;entryY=1;entryDx=0;entryDy=0;" edge="1" parent="1" source="QHZI53PdkNsuVGNOwL8E-12" target="La-xiMT2_Z9meSWqXWf7-1">
          <mxGeometry width="50" height="50" relative="1" as="geometry">
            <mxPoint x="260" y="200" as="sourcePoint" />
            <mxPoint x="310" y="150" as="targetPoint" />
          </mxGeometry>
        </mxCell>
        <mxCell id="La-xiMT2_Z9meSWqXWf7-9" value="" style="endArrow=none;html=1;exitX=0.5;exitY=1;exitDx=0;exitDy=0;entryX=0.5;entryY=0;entryDx=0;entryDy=0;" edge="1" parent="1" source="QHZI53PdkNsuVGNOwL8E-13" target="QHZI53PdkNsuVGNOwL8E-12">
          <mxGeometry width="50" height="50" relative="1" as="geometry">
            <mxPoint x="250" y="200" as="sourcePoint" />
            <mxPoint x="300" y="150" as="targetPoint" />
          </mxGeometry>
        </mxCell>
        <mxCell id="La-xiMT2_Z9meSWqXWf7-10" value="" style="endArrow=none;html=1;exitX=1;exitY=0.5;exitDx=0;exitDy=0;entryX=0;entryY=0.5;entryDx=0;entryDy=0;" edge="1" parent="1" source="La-xiMT2_Z9meSWqXWf7-2" target="QHZI53PdkNsuVGNOwL8E-12">
          <mxGeometry width="50" height="50" relative="1" as="geometry">
            <mxPoint x="180" y="250" as="sourcePoint" />
            <mxPoint x="230" y="200" as="targetPoint" />
          </mxGeometry>
        </mxCell>
        <mxCell id="La-xiMT2_Z9meSWqXWf7-12" value="" style="endArrow=none;html=1;entryX=0.5;entryY=1;entryDx=0;entryDy=0;exitX=0.5;exitY=0;exitDx=0;exitDy=0;" edge="1" parent="1" source="La-xiMT2_Z9meSWqXWf7-3" target="QHZI53PdkNsuVGNOwL8E-12">
          <mxGeometry width="50" height="50" relative="1" as="geometry">
            <mxPoint x="270" y="290" as="sourcePoint" />
            <mxPoint x="320" y="240" as="targetPoint" />
          </mxGeometry>
        </mxCell>
        <mxCell id="La-xiMT2_Z9meSWqXWf7-14" value=".Mp3" style="rounded=0;whiteSpace=wrap;html=1;" vertex="1" parent="1">
          <mxGeometry x="337.5" y="730" width="115" height="40" as="geometry" />
        </mxCell>
        <mxCell id="La-xiMT2_Z9meSWqXWf7-15" value="User ID" style="ellipse;whiteSpace=wrap;html=1;" vertex="1" parent="1">
          <mxGeometry x="140" y="725" width="100" height="50" as="geometry" />
        </mxCell>
        <mxCell id="La-xiMT2_Z9meSWqXWf7-16" value="Song ID" style="ellipse;whiteSpace=wrap;html=1;" vertex="1" parent="1">
          <mxGeometry x="540" y="725" width="105" height="50" as="geometry" />
        </mxCell>
        <mxCell id="La-xiMT2_Z9meSWqXWf7-18" value="Song path in Server" style="ellipse;whiteSpace=wrap;html=1;" vertex="1" parent="1">
          <mxGeometry x="335" y="850" width="120" height="50" as="geometry" />
        </mxCell>
        <mxCell id="La-xiMT2_Z9meSWqXWf7-19" value="" style="endArrow=none;html=1;exitX=1;exitY=0.5;exitDx=0;exitDy=0;" edge="1" parent="1" source="La-xiMT2_Z9meSWqXWf7-15">
          <mxGeometry width="50" height="50" relative="1" as="geometry">
            <mxPoint x="300" y="840" as="sourcePoint" />
            <mxPoint x="330" y="750" as="targetPoint" />
          </mxGeometry>
        </mxCell>
        <mxCell id="La-xiMT2_Z9meSWqXWf7-20" value="" style="endArrow=none;html=1;entryX=0.5;entryY=1;entryDx=0;entryDy=0;exitX=0.5;exitY=0;exitDx=0;exitDy=0;" edge="1" parent="1" source="La-xiMT2_Z9meSWqXWf7-18" target="La-xiMT2_Z9meSWqXWf7-14">
          <mxGeometry width="50" height="50" relative="1" as="geometry">
            <mxPoint x="300" y="840" as="sourcePoint" />
            <mxPoint x="350" y="790" as="targetPoint" />
          </mxGeometry>
        </mxCell>
        <mxCell id="La-xiMT2_Z9meSWqXWf7-21" value="" style="endArrow=none;html=1;entryX=0;entryY=0.5;entryDx=0;entryDy=0;exitX=1;exitY=0.5;exitDx=0;exitDy=0;" edge="1" parent="1" source="La-xiMT2_Z9meSWqXWf7-14" target="La-xiMT2_Z9meSWqXWf7-16">
          <mxGeometry width="50" height="50" relative="1" as="geometry">
            <mxPoint x="460" y="770" as="sourcePoint" />
            <mxPoint x="510" y="720" as="targetPoint" />
          </mxGeometry>
        </mxCell>
        <mxCell id="La-xiMT2_Z9meSWqXWf7-22" value="Database" style="rounded=1;whiteSpace=wrap;html=1;" vertex="1" parent="1">
          <mxGeometry x="335" y="480" width="120" height="60" as="geometry" />
        </mxCell>
        <mxCell id="La-xiMT2_Z9meSWqXWf7-23" value="" style="endArrow=none;html=1;entryX=0.5;entryY=1;entryDx=0;entryDy=0;exitX=0.5;exitY=0;exitDx=0;exitDy=0;" edge="1" parent="1" source="La-xiMT2_Z9meSWqXWf7-22" target="La-xiMT2_Z9meSWqXWf7-3">
          <mxGeometry width="50" height="50" relative="1" as="geometry">
            <mxPoint x="300" y="510" as="sourcePoint" />
            <mxPoint x="350" y="460" as="targetPoint" />
          </mxGeometry>
        </mxCell>
        <mxCell id="La-xiMT2_Z9meSWqXWf7-24" value="" style="endArrow=none;html=1;exitX=0.5;exitY=0;exitDx=0;exitDy=0;entryX=0.5;entryY=1;entryDx=0;entryDy=0;" edge="1" parent="1" source="La-xiMT2_Z9meSWqXWf7-14" target="La-xiMT2_Z9meSWqXWf7-22">
          <mxGeometry width="50" height="50" relative="1" as="geometry">
            <mxPoint x="300" y="510" as="sourcePoint" />
            <mxPoint x="350" y="460" as="targetPoint" />
          </mxGeometry>
        </mxCell>
      </root>
    </mxGraphModel>
  </diagram>
</mxfile>
